<svg width="544" height="811" viewBox="0 0 544 811" fill="none" xmlns="http://www.w3.org/2000/svg">
<ellipse cx="24.1663" cy="69.4958" rx="17.2638" ry="16.0375" fill="#242323" fill-opacity="0.3"/>
<ellipse cx="24.1663" cy="122.954" rx="17.2638" ry="16.0375" fill="#242323" fill-opacity="0.3"/>
<ellipse cx="24.1663" cy="176.412" rx="17.2638" ry="16.0375" fill="#242323" fill-opacity="0.3"/>
<ellipse cx="24.1663" cy="16.0375" rx="17.2638" ry="16.0375" fill="#242323" fill-opacity="0.3"/>
<ellipse cx="85.5488" cy="16.0375" rx="17.2638" ry="16.0375" fill="#242323" fill-opacity="0.3"/>
<ellipse cx="148.85" cy="16.0375" rx="17.2638" ry="16.0375" fill="#242323" fill-opacity="0.3"/>
<ellipse cx="212.15" cy="16.0375" rx="17.2638" ry="16.0375" fill="#242323" fill-opacity="0.3"/>
<ellipse cx="85.549" cy="69.4958" rx="17.2638" ry="16.0375" fill="#242323" fill-opacity="0.3"/>
<ellipse cx="148.85" cy="69.4958" rx="17.2638" ry="16.0375" fill="#242323" fill-opacity="0.3"/>
<ellipse cx="212.15" cy="69.4958" rx="17.2638" ry="16.0375" fill="#242323" fill-opacity="0.3"/>
<ellipse cx="275.451" cy="69.4958" rx="17.2638" ry="16.0375" fill="#242323" fill-opacity="0.3"/>
<ellipse cx="275.451" cy="122.954" rx="17.2638" ry="16.0375" fill="#242323" fill-opacity="0.3"/>
<ellipse cx="212.15" cy="122.954" rx="17.2638" ry="16.0375" fill="#242323" fill-opacity="0.3"/>
<ellipse cx="148.85" cy="122.954" rx="17.2638" ry="16.0375" fill="#242323" fill-opacity="0.3"/>
<ellipse cx="85.549" cy="122.954" rx="17.2638" ry="16.0375" fill="#242323" fill-opacity="0.3"/>
<ellipse cx="85.549" cy="176.412" rx="17.2638" ry="16.0375" fill="#242323" fill-opacity="0.3"/>
<ellipse cx="148.85" cy="176.412" rx="17.2638" ry="16.0375" fill="#242323" fill-opacity="0.3"/>
<ellipse cx="212.15" cy="176.412" rx="17.2638" ry="16.0375" fill="#242323" fill-opacity="0.3"/>
<ellipse cx="275.451" cy="176.412" rx="17.2638" ry="16.0375" fill="#242323" fill-opacity="0.3"/>
<ellipse cx="275.451" cy="16.0375" rx="17.2638" ry="16.0375" fill="#242323" fill-opacity="0.3"/>
<ellipse cx="336.834" cy="16.0375" rx="17.2638" ry="16.0375" fill="#242323" fill-opacity="0.3"/>
<ellipse cx="400.134" cy="16.0375" rx="17.2638" ry="16.0375" fill="#242323" fill-opacity="0.3"/>
<ellipse cx="463.435" cy="16.0375" rx="17.2638" ry="16.0375" fill="#242323" fill-opacity="0.3"/>
<ellipse cx="336.834" cy="69.4958" rx="17.2638" ry="16.0375" fill="#242323" fill-opacity="0.3"/>
<ellipse cx="400.134" cy="69.4958" rx="17.2638" ry="16.0375" fill="#242323" fill-opacity="0.3"/>
<ellipse cx="463.435" cy="69.4958" rx="17.2638" ry="16.0375" fill="#242323" fill-opacity="0.3"/>
<ellipse cx="526.736" cy="69.4958" rx="17.2638" ry="16.0375" fill="#242323" fill-opacity="0.3"/>
<ellipse cx="526.736" cy="122.954" rx="17.2638" ry="16.0375" fill="#242323" fill-opacity="0.3"/>
<ellipse cx="463.435" cy="122.954" rx="17.2638" ry="16.0375" fill="#242323" fill-opacity="0.3"/>
<ellipse cx="400.134" cy="122.954" rx="17.2638" ry="16.0375" fill="#242323" fill-opacity="0.3"/>
<ellipse cx="336.834" cy="122.954" rx="17.2638" ry="16.0375" fill="#242323" fill-opacity="0.3"/>
<ellipse cx="336.834" cy="176.412" rx="17.2638" ry="16.0375" fill="#242323" fill-opacity="0.3"/>
<ellipse cx="400.134" cy="176.412" rx="17.2638" ry="16.0375" fill="#242323" fill-opacity="0.3"/>
<ellipse cx="463.435" cy="176.412" rx="17.2638" ry="16.0375" fill="#242323" fill-opacity="0.3"/>
<ellipse cx="526.736" cy="176.412" rx="17.2638" ry="16.0375" fill="#242323" fill-opacity="0.3"/>
<ellipse cx="526.736" cy="16.0375" rx="17.2638" ry="16.0375" fill="#242323" fill-opacity="0.3"/>
<ellipse cx="24.1663" cy="274.419" rx="17.2638" ry="16.0375" fill="#242323" fill-opacity="0.3"/>
<ellipse cx="24.1663" cy="327.878" rx="17.2638" ry="16.0375" fill="#242323" fill-opacity="0.3"/>
<ellipse cx="24.1663" cy="381.336" rx="17.2638" ry="16.0375" fill="#242323" fill-opacity="0.3"/>
<ellipse cx="24.1663" cy="220.961" rx="17.2638" ry="16.0375" fill="#242323" fill-opacity="0.3"/>
<ellipse cx="85.5488" cy="220.961" rx="17.2638" ry="16.0375" fill="#242323" fill-opacity="0.3"/>
<ellipse cx="148.85" cy="220.961" rx="17.2638" ry="16.0375" fill="#242323" fill-opacity="0.3"/>
<ellipse cx="212.15" cy="220.961" rx="17.2638" ry="16.0375" fill="#242323" fill-opacity="0.3"/>
<ellipse cx="85.549" cy="274.419" rx="17.2638" ry="16.0375" fill="#242323" fill-opacity="0.3"/>
<ellipse cx="148.85" cy="274.419" rx="17.2638" ry="16.0375" fill="#242323" fill-opacity="0.3"/>
<ellipse cx="212.15" cy="274.419" rx="17.2638" ry="16.0375" fill="#242323" fill-opacity="0.3"/>
<ellipse cx="275.451" cy="274.419" rx="17.2638" ry="16.0375" fill="#242323" fill-opacity="0.3"/>
<ellipse cx="275.451" cy="327.878" rx="17.2638" ry="16.0375" fill="#242323" fill-opacity="0.3"/>
<ellipse cx="212.15" cy="327.878" rx="17.2638" ry="16.0375" fill="#242323" fill-opacity="0.3"/>
<ellipse cx="148.85" cy="327.878" rx="17.2638" ry="16.0375" fill="#242323" fill-opacity="0.3"/>
<ellipse cx="85.549" cy="327.878" rx="17.2638" ry="16.0375" fill="#242323" fill-opacity="0.3"/>
<ellipse cx="85.549" cy="381.336" rx="17.2638" ry="16.0375" fill="#242323" fill-opacity="0.3"/>
<ellipse cx="148.85" cy="381.336" rx="17.2638" ry="16.0375" fill="#242323" fill-opacity="0.3"/>
<ellipse cx="212.15" cy="381.336" rx="17.2638" ry="16.0375" fill="#242323" fill-opacity="0.3"/>
<ellipse cx="275.451" cy="381.336" rx="17.2638" ry="16.0375" fill="#242323" fill-opacity="0.3"/>
<ellipse cx="275.451" cy="220.961" rx="17.2638" ry="16.0375" fill="#242323" fill-opacity="0.3"/>
<ellipse cx="336.834" cy="220.961" rx="17.2638" ry="16.0375" fill="#242323" fill-opacity="0.3"/>
<ellipse cx="400.134" cy="220.961" rx="17.2638" ry="16.0375" fill="#242323" fill-opacity="0.3"/>
<ellipse cx="463.435" cy="220.961" rx="17.2638" ry="16.0375" fill="#242323" fill-opacity="0.3"/>
<ellipse cx="336.834" cy="274.419" rx="17.2638" ry="16.0375" fill="#242323" fill-opacity="0.3"/>
<ellipse cx="400.134" cy="274.419" rx="17.2638" ry="16.0375" fill="#242323" fill-opacity="0.3"/>
<ellipse cx="463.435" cy="274.419" rx="17.2638" ry="16.0375" fill="#242323" fill-opacity="0.3"/>
<ellipse cx="526.736" cy="274.419" rx="17.2638" ry="16.0375" fill="#242323" fill-opacity="0.3"/>
<ellipse cx="526.736" cy="327.878" rx="17.2638" ry="16.0375" fill="#242323" fill-opacity="0.3"/>
<ellipse cx="463.435" cy="327.878" rx="17.2638" ry="16.0375" fill="#242323" fill-opacity="0.3"/>
<ellipse cx="400.134" cy="327.878" rx="17.2638" ry="16.0375" fill="#242323" fill-opacity="0.3"/>
<ellipse cx="336.834" cy="327.878" rx="17.2638" ry="16.0375" fill="#242323" fill-opacity="0.3"/>
<ellipse cx="336.834" cy="381.336" rx="17.2638" ry="16.0375" fill="#242323" fill-opacity="0.3"/>
<ellipse cx="400.134" cy="381.336" rx="17.2638" ry="16.0375" fill="#242323" fill-opacity="0.3"/>
<ellipse cx="463.435" cy="381.336" rx="17.2638" ry="16.0375" fill="#242323" fill-opacity="0.3"/>
<ellipse cx="526.736" cy="381.336" rx="17.2638" ry="16.0375" fill="#242323" fill-opacity="0.3"/>
<ellipse cx="526.736" cy="220.961" rx="17.2638" ry="16.0375" fill="#242323" fill-opacity="0.3"/>
<ellipse cx="24.1663" cy="69.4958" rx="17.2638" ry="16.0375" fill="#242323" fill-opacity="0.3"/>
<ellipse cx="24.1663" cy="122.954" rx="17.2638" ry="16.0375" fill="#242323" fill-opacity="0.3"/>
<ellipse cx="24.1663" cy="176.412" rx="17.2638" ry="16.0375" fill="#242323" fill-opacity="0.3"/>
<ellipse cx="24.1663" cy="16.0375" rx="17.2638" ry="16.0375" fill="#242323" fill-opacity="0.3"/>
<ellipse cx="85.5488" cy="16.0375" rx="17.2638" ry="16.0375" fill="#242323" fill-opacity="0.3"/>
<ellipse cx="148.85" cy="16.0375" rx="17.2638" ry="16.0375" fill="#242323" fill-opacity="0.3"/>
<ellipse cx="212.15" cy="16.0375" rx="17.2638" ry="16.0375" fill="#242323" fill-opacity="0.3"/>
<ellipse cx="85.549" cy="69.4958" rx="17.2638" ry="16.0375" fill="#242323" fill-opacity="0.3"/>
<ellipse cx="148.85" cy="69.4958" rx="17.2638" ry="16.0375" fill="#242323" fill-opacity="0.3"/>
<ellipse cx="212.15" cy="69.4958" rx="17.2638" ry="16.0375" fill="#242323" fill-opacity="0.3"/>
<ellipse cx="275.451" cy="69.4958" rx="17.2638" ry="16.0375" fill="#242323" fill-opacity="0.3"/>
<ellipse cx="275.451" cy="122.954" rx="17.2638" ry="16.0375" fill="#242323" fill-opacity="0.3"/>
<ellipse cx="212.15" cy="122.954" rx="17.2638" ry="16.0375" fill="#242323" fill-opacity="0.3"/>
<ellipse cx="148.85" cy="122.954" rx="17.2638" ry="16.0375" fill="#242323" fill-opacity="0.3"/>
<ellipse cx="85.549" cy="122.954" rx="17.2638" ry="16.0375" fill="#242323" fill-opacity="0.3"/>
<ellipse cx="85.549" cy="176.412" rx="17.2638" ry="16.0375" fill="#242323" fill-opacity="0.3"/>
<ellipse cx="148.85" cy="176.412" rx="17.2638" ry="16.0375" fill="#242323" fill-opacity="0.3"/>
<ellipse cx="212.15" cy="176.412" rx="17.2638" ry="16.0375" fill="#242323" fill-opacity="0.3"/>
<ellipse cx="275.451" cy="176.412" rx="17.2638" ry="16.0375" fill="#242323" fill-opacity="0.3"/>
<ellipse cx="275.451" cy="16.0375" rx="17.2638" ry="16.0375" fill="#242323" fill-opacity="0.3"/>
<ellipse cx="336.834" cy="16.0375" rx="17.2638" ry="16.0375" fill="#242323" fill-opacity="0.3"/>
<ellipse cx="400.134" cy="16.0375" rx="17.2638" ry="16.0375" fill="#242323" fill-opacity="0.3"/>
<ellipse cx="463.435" cy="16.0375" rx="17.2638" ry="16.0375" fill="#242323" fill-opacity="0.3"/>
<ellipse cx="336.834" cy="69.4958" rx="17.2638" ry="16.0375" fill="#242323" fill-opacity="0.3"/>
<ellipse cx="400.134" cy="69.4958" rx="17.2638" ry="16.0375" fill="#242323" fill-opacity="0.3"/>
<ellipse cx="463.435" cy="69.4958" rx="17.2638" ry="16.0375" fill="#242323" fill-opacity="0.3"/>
<ellipse cx="526.736" cy="69.4958" rx="17.2638" ry="16.0375" fill="#242323" fill-opacity="0.3"/>
<ellipse cx="526.736" cy="122.954" rx="17.2638" ry="16.0375" fill="#242323" fill-opacity="0.3"/>
<ellipse cx="463.435" cy="122.954" rx="17.2638" ry="16.0375" fill="#242323" fill-opacity="0.3"/>
<ellipse cx="400.134" cy="122.954" rx="17.2638" ry="16.0375" fill="#242323" fill-opacity="0.3"/>
<ellipse cx="336.834" cy="122.954" rx="17.2638" ry="16.0375" fill="#242323" fill-opacity="0.3"/>
<ellipse cx="336.834" cy="176.412" rx="17.2638" ry="16.0375" fill="#242323" fill-opacity="0.3"/>
<ellipse cx="400.134" cy="176.412" rx="17.2638" ry="16.0375" fill="#242323" fill-opacity="0.3"/>
<ellipse cx="463.435" cy="176.412" rx="17.2638" ry="16.0375" fill="#242323" fill-opacity="0.3"/>
<ellipse cx="526.736" cy="176.412" rx="17.2638" ry="16.0375" fill="#242323" fill-opacity="0.3"/>
<ellipse cx="526.736" cy="16.0375" rx="17.2638" ry="16.0375" fill="#242323" fill-opacity="0.3"/>
<ellipse cx="24.1663" cy="274.419" rx="17.2638" ry="16.0375" fill="#242323" fill-opacity="0.3"/>
<ellipse cx="24.1663" cy="327.878" rx="17.2638" ry="16.0375" fill="#242323" fill-opacity="0.3"/>
<ellipse cx="24.1663" cy="381.336" rx="17.2638" ry="16.0375" fill="#242323" fill-opacity="0.3"/>
<ellipse cx="24.1663" cy="220.961" rx="17.2638" ry="16.0375" fill="#242323" fill-opacity="0.3"/>
<ellipse cx="85.5488" cy="220.961" rx="17.2638" ry="16.0375" fill="#242323" fill-opacity="0.3"/>
<ellipse cx="148.85" cy="220.961" rx="17.2638" ry="16.0375" fill="#242323" fill-opacity="0.3"/>
<ellipse cx="212.15" cy="220.961" rx="17.2638" ry="16.0375" fill="#242323" fill-opacity="0.3"/>
<ellipse cx="85.549" cy="274.419" rx="17.2638" ry="16.0375" fill="#242323" fill-opacity="0.3"/>
<ellipse cx="148.85" cy="274.419" rx="17.2638" ry="16.0375" fill="#242323" fill-opacity="0.3"/>
<ellipse cx="212.15" cy="274.419" rx="17.2638" ry="16.0375" fill="#242323" fill-opacity="0.3"/>
<ellipse cx="275.451" cy="274.419" rx="17.2638" ry="16.0375" fill="#242323" fill-opacity="0.3"/>
<ellipse cx="275.451" cy="327.878" rx="17.2638" ry="16.0375" fill="#242323" fill-opacity="0.3"/>
<ellipse cx="212.15" cy="327.878" rx="17.2638" ry="16.0375" fill="#242323" fill-opacity="0.3"/>
<ellipse cx="148.85" cy="327.878" rx="17.2638" ry="16.0375" fill="#242323" fill-opacity="0.3"/>
<ellipse cx="85.549" cy="327.878" rx="17.2638" ry="16.0375" fill="#242323" fill-opacity="0.3"/>
<ellipse cx="85.549" cy="381.336" rx="17.2638" ry="16.0375" fill="#242323" fill-opacity="0.3"/>
<ellipse cx="148.85" cy="381.336" rx="17.2638" ry="16.0375" fill="#242323" fill-opacity="0.3"/>
<ellipse cx="212.15" cy="381.336" rx="17.2638" ry="16.0375" fill="#242323" fill-opacity="0.3"/>
<ellipse cx="275.451" cy="381.336" rx="17.2638" ry="16.0375" fill="#242323" fill-opacity="0.3"/>
<ellipse cx="275.451" cy="220.961" rx="17.2638" ry="16.0375" fill="#242323" fill-opacity="0.3"/>
<ellipse cx="336.834" cy="220.961" rx="17.2638" ry="16.0375" fill="#242323" fill-opacity="0.3"/>
<ellipse cx="400.134" cy="220.961" rx="17.2638" ry="16.0375" fill="#242323" fill-opacity="0.3"/>
<ellipse cx="463.435" cy="220.961" rx="17.2638" ry="16.0375" fill="#242323" fill-opacity="0.3"/>
<ellipse cx="336.834" cy="274.419" rx="17.2638" ry="16.0375" fill="#242323" fill-opacity="0.3"/>
<ellipse cx="400.134" cy="274.419" rx="17.2638" ry="16.0375" fill="#242323" fill-opacity="0.3"/>
<ellipse cx="463.435" cy="274.419" rx="17.2638" ry="16.0375" fill="#242323" fill-opacity="0.3"/>
<ellipse cx="526.736" cy="274.419" rx="17.2638" ry="16.0375" fill="#242323" fill-opacity="0.3"/>
<ellipse cx="526.736" cy="327.878" rx="17.2638" ry="16.0375" fill="#242323" fill-opacity="0.3"/>
<ellipse cx="463.435" cy="327.878" rx="17.2638" ry="16.0375" fill="#242323" fill-opacity="0.3"/>
<ellipse cx="400.134" cy="327.878" rx="17.2638" ry="16.0375" fill="#242323" fill-opacity="0.3"/>
<ellipse cx="336.834" cy="327.878" rx="17.2638" ry="16.0375" fill="#242323" fill-opacity="0.3"/>
<ellipse cx="336.834" cy="381.336" rx="17.2638" ry="16.0375" fill="#242323" fill-opacity="0.3"/>
<ellipse cx="400.134" cy="381.336" rx="17.2638" ry="16.0375" fill="#242323" fill-opacity="0.3"/>
<ellipse cx="463.435" cy="381.336" rx="17.2638" ry="16.0375" fill="#242323" fill-opacity="0.3"/>
<ellipse cx="526.736" cy="381.336" rx="17.2638" ry="16.0375" fill="#242323" fill-opacity="0.3"/>
<ellipse cx="526.736" cy="220.961" rx="17.2638" ry="16.0375" fill="#242323" fill-opacity="0.3"/>
<ellipse cx="24.1663" cy="483.122" rx="17.2638" ry="16.0375" fill="#242323" fill-opacity="0.3"/>
<ellipse cx="24.1663" cy="536.581" rx="17.2638" ry="16.0375" fill="#242323" fill-opacity="0.3"/>
<ellipse cx="24.1663" cy="590.039" rx="17.2638" ry="16.0375" fill="#242323" fill-opacity="0.3"/>
<ellipse cx="24.1663" cy="429.664" rx="17.2638" ry="16.0375" fill="#242323" fill-opacity="0.3"/>
<ellipse cx="85.5488" cy="429.664" rx="17.2638" ry="16.0375" fill="#242323" fill-opacity="0.3"/>
<ellipse cx="148.85" cy="429.664" rx="17.2638" ry="16.0375" fill="#242323" fill-opacity="0.3"/>
<ellipse cx="212.15" cy="429.664" rx="17.2638" ry="16.0375" fill="#242323" fill-opacity="0.3"/>
<ellipse cx="85.549" cy="483.122" rx="17.2638" ry="16.0375" fill="#242323" fill-opacity="0.3"/>
<ellipse cx="148.85" cy="483.122" rx="17.2638" ry="16.0375" fill="#242323" fill-opacity="0.3"/>
<ellipse cx="212.15" cy="483.122" rx="17.2638" ry="16.0375" fill="#242323" fill-opacity="0.3"/>
<ellipse cx="275.451" cy="483.122" rx="17.2638" ry="16.0375" fill="#242323" fill-opacity="0.3"/>
<ellipse cx="275.451" cy="536.581" rx="17.2638" ry="16.0375" fill="#242323" fill-opacity="0.3"/>
<ellipse cx="212.15" cy="536.581" rx="17.2638" ry="16.0375" fill="#242323" fill-opacity="0.3"/>
<ellipse cx="148.85" cy="536.581" rx="17.2638" ry="16.0375" fill="#242323" fill-opacity="0.3"/>
<ellipse cx="85.549" cy="536.581" rx="17.2638" ry="16.0375" fill="#242323" fill-opacity="0.3"/>
<ellipse cx="85.549" cy="590.039" rx="17.2638" ry="16.0375" fill="#242323" fill-opacity="0.3"/>
<ellipse cx="148.85" cy="590.039" rx="17.2638" ry="16.0375" fill="#242323" fill-opacity="0.3"/>
<ellipse cx="212.15" cy="590.039" rx="17.2638" ry="16.0375" fill="#242323" fill-opacity="0.3"/>
<ellipse cx="275.451" cy="590.039" rx="17.2638" ry="16.0375" fill="#242323" fill-opacity="0.3"/>
<ellipse cx="275.451" cy="429.664" rx="17.2638" ry="16.0375" fill="#242323" fill-opacity="0.3"/>
<ellipse cx="336.834" cy="429.664" rx="17.2638" ry="16.0375" fill="#242323" fill-opacity="0.3"/>
<ellipse cx="400.134" cy="429.664" rx="17.2638" ry="16.0375" fill="#242323" fill-opacity="0.3"/>
<ellipse cx="463.435" cy="429.664" rx="17.2638" ry="16.0375" fill="#242323" fill-opacity="0.3"/>
<ellipse cx="336.834" cy="483.122" rx="17.2638" ry="16.0375" fill="#242323" fill-opacity="0.3"/>
<ellipse cx="400.134" cy="483.122" rx="17.2638" ry="16.0375" fill="#242323" fill-opacity="0.3"/>
<ellipse cx="463.435" cy="483.122" rx="17.2638" ry="16.0375" fill="#242323" fill-opacity="0.3"/>
<ellipse cx="526.736" cy="483.122" rx="17.2638" ry="16.0375" fill="#242323" fill-opacity="0.3"/>
<ellipse cx="526.736" cy="536.581" rx="17.2638" ry="16.0375" fill="#242323" fill-opacity="0.3"/>
<ellipse cx="463.435" cy="536.581" rx="17.2638" ry="16.0375" fill="#242323" fill-opacity="0.3"/>
<ellipse cx="400.134" cy="536.581" rx="17.2638" ry="16.0375" fill="#242323" fill-opacity="0.3"/>
<ellipse cx="336.834" cy="536.581" rx="17.2638" ry="16.0375" fill="#242323" fill-opacity="0.3"/>
<ellipse cx="336.834" cy="590.039" rx="17.2638" ry="16.0375" fill="#242323" fill-opacity="0.3"/>
<ellipse cx="400.134" cy="590.039" rx="17.2638" ry="16.0375" fill="#242323" fill-opacity="0.3"/>
<ellipse cx="463.435" cy="590.039" rx="17.2638" ry="16.0375" fill="#242323" fill-opacity="0.3"/>
<ellipse cx="526.736" cy="590.039" rx="17.2638" ry="16.0375" fill="#242323" fill-opacity="0.3"/>
<ellipse cx="526.736" cy="429.664" rx="17.2638" ry="16.0375" fill="#242323" fill-opacity="0.3"/>
<ellipse cx="24.1663" cy="688.046" rx="17.2638" ry="16.0375" fill="#242323" fill-opacity="0.3"/>
<ellipse cx="24.1663" cy="741.504" rx="17.2638" ry="16.0375" fill="#242323" fill-opacity="0.3"/>
<ellipse cx="24.1663" cy="794.962" rx="17.2638" ry="16.0375" fill="#242323" fill-opacity="0.3"/>
<ellipse cx="24.1663" cy="634.588" rx="17.2638" ry="16.0375" fill="#242323" fill-opacity="0.3"/>
<ellipse cx="85.5488" cy="634.588" rx="17.2638" ry="16.0375" fill="#242323" fill-opacity="0.3"/>
<ellipse cx="148.85" cy="634.588" rx="17.2638" ry="16.0375" fill="#242323" fill-opacity="0.3"/>
<ellipse cx="212.15" cy="634.588" rx="17.2638" ry="16.0375" fill="#242323" fill-opacity="0.3"/>
<ellipse cx="85.549" cy="688.046" rx="17.2638" ry="16.0375" fill="#242323" fill-opacity="0.3"/>
<ellipse cx="148.85" cy="688.046" rx="17.2638" ry="16.0375" fill="#242323" fill-opacity="0.3"/>
<ellipse cx="212.15" cy="688.046" rx="17.2638" ry="16.0375" fill="#242323" fill-opacity="0.3"/>
<ellipse cx="275.451" cy="688.046" rx="17.2638" ry="16.0375" fill="#242323" fill-opacity="0.3"/>
<ellipse cx="275.451" cy="741.504" rx="17.2638" ry="16.0375" fill="#242323" fill-opacity="0.3"/>
<ellipse cx="212.15" cy="741.504" rx="17.2638" ry="16.0375" fill="#242323" fill-opacity="0.3"/>
<ellipse cx="148.85" cy="741.504" rx="17.2638" ry="16.0375" fill="#242323" fill-opacity="0.3"/>
<ellipse cx="85.549" cy="741.504" rx="17.2638" ry="16.0375" fill="#242323" fill-opacity="0.3"/>
<ellipse cx="85.549" cy="794.962" rx="17.2638" ry="16.0375" fill="#242323" fill-opacity="0.3"/>
<ellipse cx="148.85" cy="794.962" rx="17.2638" ry="16.0375" fill="#242323" fill-opacity="0.3"/>
<ellipse cx="212.15" cy="794.962" rx="17.2638" ry="16.0375" fill="#242323" fill-opacity="0.3"/>
<ellipse cx="275.451" cy="794.962" rx="17.2638" ry="16.0375" fill="#242323" fill-opacity="0.3"/>
<ellipse cx="275.451" cy="634.588" rx="17.2638" ry="16.0375" fill="#242323" fill-opacity="0.3"/>
<ellipse cx="336.834" cy="634.588" rx="17.2638" ry="16.0375" fill="#242323" fill-opacity="0.3"/>
<ellipse cx="400.134" cy="634.588" rx="17.2638" ry="16.0375" fill="#242323" fill-opacity="0.3"/>
<ellipse cx="463.435" cy="634.588" rx="17.2638" ry="16.0375" fill="#242323" fill-opacity="0.3"/>
<ellipse cx="336.834" cy="688.046" rx="17.2638" ry="16.0375" fill="#242323" fill-opacity="0.3"/>
<ellipse cx="400.134" cy="688.046" rx="17.2638" ry="16.0375" fill="#242323" fill-opacity="0.3"/>
<ellipse cx="463.435" cy="688.046" rx="17.2638" ry="16.0375" fill="#242323" fill-opacity="0.3"/>
<ellipse cx="526.736" cy="688.046" rx="17.2638" ry="16.0375" fill="#242323" fill-opacity="0.3"/>
<ellipse cx="526.736" cy="741.504" rx="17.2638" ry="16.0375" fill="#242323" fill-opacity="0.3"/>
<ellipse cx="463.435" cy="741.504" rx="17.2638" ry="16.0375" fill="#242323" fill-opacity="0.3"/>
<ellipse cx="400.134" cy="741.504" rx="17.2638" ry="16.0375" fill="#242323" fill-opacity="0.3"/>
<ellipse cx="336.834" cy="741.504" rx="17.2638" ry="16.0375" fill="#242323" fill-opacity="0.3"/>
<ellipse cx="336.834" cy="794.962" rx="17.2638" ry="16.0375" fill="#242323" fill-opacity="0.3"/>
<ellipse cx="400.134" cy="794.962" rx="17.2638" ry="16.0375" fill="#242323" fill-opacity="0.3"/>
<ellipse cx="463.435" cy="794.962" rx="17.2638" ry="16.0375" fill="#242323" fill-opacity="0.3"/>
<ellipse cx="526.736" cy="794.962" rx="17.2638" ry="16.0375" fill="#242323" fill-opacity="0.3"/>
<ellipse cx="526.736" cy="634.588" rx="17.2638" ry="16.0375" fill="#242323" fill-opacity="0.3"/>
<ellipse cx="24.1663" cy="483.122" rx="17.2638" ry="16.0375" fill="#242323" fill-opacity="0.3"/>
<ellipse cx="24.1663" cy="536.581" rx="17.2638" ry="16.0375" fill="#242323" fill-opacity="0.3"/>
<ellipse cx="24.1663" cy="590.039" rx="17.2638" ry="16.0375" fill="#242323" fill-opacity="0.3"/>
<ellipse cx="24.1663" cy="429.664" rx="17.2638" ry="16.0375" fill="#242323" fill-opacity="0.3"/>
<ellipse cx="85.5488" cy="429.664" rx="17.2638" ry="16.0375" fill="#242323" fill-opacity="0.3"/>
<ellipse cx="148.85" cy="429.664" rx="17.2638" ry="16.0375" fill="#242323" fill-opacity="0.3"/>
<ellipse cx="212.15" cy="429.664" rx="17.2638" ry="16.0375" fill="#242323" fill-opacity="0.3"/>
<ellipse cx="85.549" cy="483.122" rx="17.2638" ry="16.0375" fill="#242323" fill-opacity="0.3"/>
<ellipse cx="148.85" cy="483.122" rx="17.2638" ry="16.0375" fill="#242323" fill-opacity="0.3"/>
<ellipse cx="212.15" cy="483.122" rx="17.2638" ry="16.0375" fill="#242323" fill-opacity="0.3"/>
<ellipse cx="275.451" cy="483.122" rx="17.2638" ry="16.0375" fill="#242323" fill-opacity="0.3"/>
<ellipse cx="275.451" cy="536.581" rx="17.2638" ry="16.0375" fill="#242323" fill-opacity="0.3"/>
<ellipse cx="212.15" cy="536.581" rx="17.2638" ry="16.0375" fill="#242323" fill-opacity="0.3"/>
<ellipse cx="148.85" cy="536.581" rx="17.2638" ry="16.0375" fill="#242323" fill-opacity="0.3"/>
<ellipse cx="85.549" cy="536.581" rx="17.2638" ry="16.0375" fill="#242323" fill-opacity="0.3"/>
<ellipse cx="85.549" cy="590.039" rx="17.2638" ry="16.0375" fill="#242323" fill-opacity="0.3"/>
<ellipse cx="148.85" cy="590.039" rx="17.2638" ry="16.0375" fill="#242323" fill-opacity="0.3"/>
<ellipse cx="212.15" cy="590.039" rx="17.2638" ry="16.0375" fill="#242323" fill-opacity="0.3"/>
<ellipse cx="275.451" cy="590.039" rx="17.2638" ry="16.0375" fill="#242323" fill-opacity="0.3"/>
<ellipse cx="275.451" cy="429.664" rx="17.2638" ry="16.0375" fill="#242323" fill-opacity="0.3"/>
<ellipse cx="336.834" cy="429.664" rx="17.2638" ry="16.0375" fill="#242323" fill-opacity="0.3"/>
<ellipse cx="400.134" cy="429.664" rx="17.2638" ry="16.0375" fill="#242323" fill-opacity="0.3"/>
<ellipse cx="463.435" cy="429.664" rx="17.2638" ry="16.0375" fill="#242323" fill-opacity="0.3"/>
<ellipse cx="336.834" cy="483.122" rx="17.2638" ry="16.0375" fill="#242323" fill-opacity="0.3"/>
<ellipse cx="400.134" cy="483.122" rx="17.2638" ry="16.0375" fill="#242323" fill-opacity="0.3"/>
<ellipse cx="463.435" cy="483.122" rx="17.2638" ry="16.0375" fill="#242323" fill-opacity="0.3"/>
<ellipse cx="526.736" cy="483.122" rx="17.2638" ry="16.0375" fill="#242323" fill-opacity="0.3"/>
<ellipse cx="526.736" cy="536.581" rx="17.2638" ry="16.0375" fill="#242323" fill-opacity="0.3"/>
<ellipse cx="463.435" cy="536.581" rx="17.2638" ry="16.0375" fill="#242323" fill-opacity="0.3"/>
<ellipse cx="400.134" cy="536.581" rx="17.2638" ry="16.0375" fill="#242323" fill-opacity="0.3"/>
<ellipse cx="336.834" cy="536.581" rx="17.2638" ry="16.0375" fill="#242323" fill-opacity="0.3"/>
<ellipse cx="336.834" cy="590.039" rx="17.2638" ry="16.0375" fill="#242323" fill-opacity="0.3"/>
<ellipse cx="400.134" cy="590.039" rx="17.2638" ry="16.0375" fill="#242323" fill-opacity="0.3"/>
<ellipse cx="463.435" cy="590.039" rx="17.2638" ry="16.0375" fill="#242323" fill-opacity="0.3"/>
<ellipse cx="526.736" cy="590.039" rx="17.2638" ry="16.0375" fill="#242323" fill-opacity="0.3"/>
<ellipse cx="526.736" cy="429.664" rx="17.2638" ry="16.0375" fill="#242323" fill-opacity="0.3"/>
<ellipse cx="24.1663" cy="688.046" rx="17.2638" ry="16.0375" fill="#242323" fill-opacity="0.3"/>
<ellipse cx="24.1663" cy="741.504" rx="17.2638" ry="16.0375" fill="#242323" fill-opacity="0.3"/>
<ellipse cx="24.1663" cy="794.962" rx="17.2638" ry="16.0375" fill="#242323" fill-opacity="0.3"/>
<ellipse cx="24.1663" cy="634.588" rx="17.2638" ry="16.0375" fill="#242323" fill-opacity="0.3"/>
<ellipse cx="85.5488" cy="634.588" rx="17.2638" ry="16.0375" fill="#242323" fill-opacity="0.3"/>
<ellipse cx="148.85" cy="634.588" rx="17.2638" ry="16.0375" fill="#242323" fill-opacity="0.3"/>
<ellipse cx="212.15" cy="634.588" rx="17.2638" ry="16.0375" fill="#242323" fill-opacity="0.3"/>
<ellipse cx="85.549" cy="688.046" rx="17.2638" ry="16.0375" fill="#242323" fill-opacity="0.3"/>
<ellipse cx="148.85" cy="688.046" rx="17.2638" ry="16.0375" fill="#242323" fill-opacity="0.3"/>
<ellipse cx="212.15" cy="688.046" rx="17.2638" ry="16.0375" fill="#242323" fill-opacity="0.3"/>
<ellipse cx="275.451" cy="688.046" rx="17.2638" ry="16.0375" fill="#242323" fill-opacity="0.3"/>
<ellipse cx="275.451" cy="741.504" rx="17.2638" ry="16.0375" fill="#242323" fill-opacity="0.3"/>
<ellipse cx="212.15" cy="741.504" rx="17.2638" ry="16.0375" fill="#242323" fill-opacity="0.3"/>
<ellipse cx="148.85" cy="741.504" rx="17.2638" ry="16.0375" fill="#242323" fill-opacity="0.3"/>
<ellipse cx="85.549" cy="741.504" rx="17.2638" ry="16.0375" fill="#242323" fill-opacity="0.3"/>
<ellipse cx="85.549" cy="794.962" rx="17.2638" ry="16.0375" fill="#242323" fill-opacity="0.3"/>
<ellipse cx="148.85" cy="794.962" rx="17.2638" ry="16.0375" fill="#242323" fill-opacity="0.3"/>
<ellipse cx="212.15" cy="794.962" rx="17.2638" ry="16.0375" fill="#242323" fill-opacity="0.3"/>
<ellipse cx="275.451" cy="794.962" rx="17.2638" ry="16.0375" fill="#242323" fill-opacity="0.3"/>
<ellipse cx="275.451" cy="634.588" rx="17.2638" ry="16.0375" fill="#242323" fill-opacity="0.3"/>
<ellipse cx="336.834" cy="634.588" rx="17.2638" ry="16.0375" fill="#242323" fill-opacity="0.3"/>
<ellipse cx="400.134" cy="634.588" rx="17.2638" ry="16.0375" fill="#242323" fill-opacity="0.3"/>
<ellipse cx="463.435" cy="634.588" rx="17.2638" ry="16.0375" fill="#242323" fill-opacity="0.3"/>
<ellipse cx="336.834" cy="688.046" rx="17.2638" ry="16.0375" fill="#242323" fill-opacity="0.3"/>
<ellipse cx="400.134" cy="688.046" rx="17.2638" ry="16.0375" fill="#242323" fill-opacity="0.3"/>
<ellipse cx="463.435" cy="688.046" rx="17.2638" ry="16.0375" fill="#242323" fill-opacity="0.3"/>
<ellipse cx="526.736" cy="688.046" rx="17.2638" ry="16.0375" fill="#242323" fill-opacity="0.3"/>
<ellipse cx="526.736" cy="741.504" rx="17.2638" ry="16.0375" fill="#242323" fill-opacity="0.3"/>
<ellipse cx="463.435" cy="741.504" rx="17.2638" ry="16.0375" fill="#242323" fill-opacity="0.3"/>
<ellipse cx="400.134" cy="741.504" rx="17.2638" ry="16.0375" fill="#242323" fill-opacity="0.3"/>
<ellipse cx="336.834" cy="741.504" rx="17.2638" ry="16.0375" fill="#242323" fill-opacity="0.3"/>
<ellipse cx="336.834" cy="794.962" rx="17.2638" ry="16.0375" fill="#242323" fill-opacity="0.3"/>
<ellipse cx="400.134" cy="794.962" rx="17.2638" ry="16.0375" fill="#242323" fill-opacity="0.3"/>
<ellipse cx="463.435" cy="794.962" rx="17.2638" ry="16.0375" fill="#242323" fill-opacity="0.3"/>
<ellipse cx="526.736" cy="794.962" rx="17.2638" ry="16.0375" fill="#242323" fill-opacity="0.3"/>
<ellipse cx="526.736" cy="634.588" rx="17.2638" ry="16.0375" fill="#242323" fill-opacity="0.3"/>
</svg>
